@startuml
autonumber
Alice -> Bob: Authentication Request
Bob --> Alice: Authentication Response

Alice -> Bob: Another authentication Request
Alice <-- Bob: another authentication Response
@enduml


@startuml
A -> B: do something
B -> A: do something
@enduml


@startuml
actor Foo1
boundary Foo2
control Foo3
entity Foo4
database Foo5
collections Foo6
Foo1 -> Foo2 : To boundary
Foo1 -> Foo3 : To control
Foo1 -> Foo4 : To entity
Foo1 -> Foo5 : To database
Foo1 -> Foo6 : To collections
@enduml

@startuml
object Object01
object Object02
object Object03
object Object04
object Object05
object Object06
object Object07
object Object08

Object01 <|-- Object02
Object03 *-- Object04
Object05 o-- "4" Object06
Object07 .. Object08 : some labels
@enduml



@startuml
object DataCollection
DataCollection : data_collection_id
DataCollection : modified_time
DataCollection : create_time
DataCollection : seller_id
DataCollection : account_no
DataCollection : active
DataCollection : is_running
DataCollection : is_valid
DataCollection : start_time
DataCollection : end_time
DataCollection : schedule_config_key
DataCollection : survial_times

object DataTask
DataTask : data_task_id
DataTask : modified_time
DataTask : create_time
DataTask : data_collection_id
DataTask : status
DataTask : extend_info
DataTask : retry_times
DataTask : start_time
DataTask : end_time
DataTask : next_exec_time
DataCollection o-- DataTask : data_collection_id
@enduml


@startuml
state "Req(Id)" as ReqId <<sdlreceive>>
state "Minor(Id)" as MinorId
state "Major(Id)" as MajorId

state c <<choice>>

Idle --> ReqId
ReqId --> c
c --> MinorId : [Id <= 10]
c --> MajorId : [Id > 10]
@enduml


@startuml
[*] -> State1
State1 --> State2
note on link
  this is a state-transition note
end note
@enduml


@startuml

start

if (Graphviz installed?) then (yes)
  :process all\ndiagrams;
else (no)
  :process only
  __sequence__ and __activity__ diagrams;
endif

stop

@enduml


@startuml
start
:Hello world;
:This is on defined on
several **lines**;
end
@enduml


@startuml
start
:Sign (msg notify);
:get schedule config from
**parameter center**;
:create and set data_collection_info;
:storeid,start_time,end_time,active=Y;
stop
@enduml